<!-- Github Icon -->
<svg width="16" height="16" viewBox="0 0 24 24" fill="none" xmlns="http://www.w3.org/2000/svg">
  <path d="M12 0.296875C5.375 0.296875 0 5.67188 0 12.2969C0 17.5781 3.438 22.0312 8.20625 23.7188C8.83125 23.8438 9.09375 23.4688 9.09375 23.1406V21.2031C5.75 21.875 5.03125 19.9062 5.03125 19.9062C4.48125 18.5156 3.69375 18.1719 3.69375 18.1719C2.55 17.5156 3.7875 17.5312 3.7875 17.5312C5.04375 17.625 5.69375 18.8594 5.69375 18.8594C6.79375 20.6406 8.56875 20.0938 9.20625 19.7969C9.34375 18.9688 9.70625 18.3906 10.125 18.0469C7.38125 17.7188 4.5 16.6875 4.5 11.9531C4.5 10.5938 5.025 9.48438 5.83125 8.65625C5.69375 8.3125 5.23125 7.04688 5.925 5.32812C5.925 5.32812 6.96875 5.01562 9.075 6.625C9.975 6.35938 10.95 6.23438 11.925 6.23438C12.9 6.23438 13.875 6.35938 14.775 6.625C16.8813 5.01562 17.925 5.32812 17.925 5.32812C18.6187 7.04688 18.1563 8.3125 18.0188 8.65625C18.825 9.48438 19.35 10.5938 19.35 11.9531C19.35 16.7031 16.4625 17.7188 13.725 18.0469C14.2875 18.5156 14.7375 19.4062 14.7375 20.75V23.1406C14.7375 23.4688 15 23.8438 15.625 23.7188C20.3937 22.0312 24 17.5781 24 12.2969C24 5.67188 18.625 0.296875 12 0.296875Z" fill="white"/>
</svg>
