<svg xmlns="http://www.w3.org/2000/svg" viewBox="0 0 128 128">
  <path fill="#306998" d="M48.6 9.8c-4.9.2-9.7.8-14.2 2.1-12.5 3.4-13.4 10.6-13.4 23v8.4h26.8v3H20.3c-11.3 0-20.7 9.2-22.1 20.4-1.7 13.4-1.7 21.7 0 35.2C-1.6 112.3 9.4 121.2 20.3 121.2h8.3c11.6 0 22-5.2 22-17.1V96.6H23.5c-1.8 0-3.5-1.4-3.5-3.1v-13.8c0-1.8 1.8-3.5 3.5-3.5h29.5c11.3 0 22-9.4 22-20.3V26.6c0-11.6-9-17.1-20.7-16.9zm-.7 10.5c4.9 0 9 4.2 9 9 0 4.9-4.1 9-9 9s-9-4.1-9-9c0-4.9 4.1-9 9-9zM78.2 25.2c-11.6 0-22 5.1-22 17.1V46.4h28.6c1.8 0 3.5 1.7 3.5 3.5v13.8c0 1.7-1.7 3.1-3.5 3.1H55.2c-11.3 0-22 9.3-22 20.3v8.4c0 11.8 9.1 17.2 20.7 17.1 4.9-.2 9.7-.8 14.2-2.1 12.5-3.4 13.4-10.6 13.4-23v-8.4H82.3v-3h26.5c11.4 0 20.8-9.3 22.1-20.5 1.7-13.4 1.7-21.7 0-35.1C122 11.7 111 2.7 100.8 2.7h-8.4c-11.6 0-22 5.1-22 17v9.4h13.4c1.8 0 3.5-1.7 3.5-3.5V22.7c.1-1.7-1.6-3.1-3.4-3.1zM50.7 103.2c-4.9 0-9 4.1-9 9 0 4.9 4.1 9 9 9s9-4.1 9-9c0-4.9-4.1-9-9-9z"/>
</svg>
