<svg xmlns="http://www.w3.org/2000/svg" viewBox="0 0 128 128">
  <path fill="#003b57" d="M107.9 16.4c-4.4-4.4-11.7-6.5-22.1-6.5-6 0-12.7.6-19.6 1.6C46.4 16.1 22.3 32 6.8 43.3c-6 4.3-8.4 7-8.4 9.6s2.4 5.3 8.4 9.6c15.5 11.3 39.6 27.1 59.5 32c6.9 1 13.6 1.6 19.6 1.6 10.4 0 17.6-2.1 22.1-6.5 10.7-10.7 10.7-31.4 0-42zm-47 27.6c5.3-7.5 10-15.4 13.7-23.5c4.8-10.2 8.8-15.9 13.2-17.7c5.2-2.2 11.1 2.6 17.2 7.4c4.8 3.9 10 8.5 12.3 14.5c2.5 6.6-1.2 12.7-3.9 16.4c-3.5 5-11.3 10.3-18.1 13.4c-7.4 3.4-15.1 4.4-24.4-1.6c-7.3-5-11-12.4-10-17.2c.8-4.1 3.7-6.8 5.9-7.3z"/>
</svg>
